<?xml version="1.0" encoding="utf-8"?>
<!-- Generator: Adobe Illustrator 26.5.0, SVG Export Plug-In . SVG Version: 6.00 Build 0)  -->
<svg version="1.1" id="Livello_1" xmlns="http://www.w3.org/2000/svg" xmlns:xlink="http://www.w3.org/1999/xlink" x="0px" y="0px"
	 viewBox="0 0 42 42" style="enable-background:new 0 0 42 42;" xml:space="preserve">
<style type="text/css">
	.st0{opacity:0.15;fill-rule:evenodd;clip-rule:evenodd;fill:url(#SVGID_1_);enable-background:new    ;}
	
		.st1{fill:url(#SVGID_00000138552799140136005210000011252319830257947045_);stroke:url(#SVGID_00000065762616826968839780000006542721472660853428_);stroke-width:0.25;}
	
		.st2{fill:url(#SVGID_00000142160947318758927380000004606188075904803252_);stroke:url(#SVGID_00000103225543630227107120000000510488726799017918_);stroke-width:0.25;}
</style>
<linearGradient id="SVGID_1_" gradientUnits="userSpaceOnUse" x1="2.9725" y1="42.7336" x2="37.5058" y2="4.6002" gradientTransform="matrix(1 0 0 -1 0 44)">
	<stop  offset="0.2593" style="stop-color:#5AC5F1"/>
	<stop  offset="1" style="stop-color:#5F89C7"/>
</linearGradient>
<path class="st0" d="M40.6,19.8c-0.2-0.1-0.5,0-0.6,0.1l-1.8,1.8v-12c0-0.3-0.3-0.6-0.6-0.6h-4.5l1.6-1.6l0,0l1.6-1.6
	c0.3-0.3,0.5-0.8,0.5-1.3c0-0.5-0.2-0.9-0.5-1.3l-1.8-1.8C34.2,1.2,33.7,1,33.3,1c-0.5,0-0.9,0.2-1.3,0.5l-1.6,1.6L28.5,5l-4.1,4.1
	H6.2V3.3c0-0.3-0.3-0.6-0.6-0.6C3.1,2.7,1,4.8,1,7.3v25c0,0,0,0.1,0,0.1c0.1,1.1,0.5,2.1,1.3,2.9c0.8,0.8,1.9,1.3,3.1,1.3h17.9
	L20,40c-0.2,0.2-0.2,0.4-0.1,0.6c0.1,0.2,0.3,0.4,0.5,0.4h20c0.3,0,0.6-0.3,0.6-0.6V20.4C41,20.1,40.9,19.9,40.6,19.8z M32.8,2.4
	c0.2-0.2,0.6-0.2,0.9,0l1.8,1.8c0.2,0.2,0.2,0.6,0,0.9l-1.2,1.2l-2.7-2.7L32.8,2.4z M30.8,4.4l2.7,2.7l-1.1,1.1l-2.7-2.7L30.8,4.4z
	 M18.4,21.8l-1.7,0.6l-1.1-1.1l0.6-1.7L18.4,21.8z M35.8,30.2l-5.7,5.7c-0.1,0.1,0,0.2,0.1,0.2H36v-5.8C36,30.2,35.9,30.1,35.8,30.2
	z M16,18.5l3.5,3.5l13-13L29,5.5L16,18.5z"/>
<linearGradient id="SVGID_00000114768627175321500320000017921235803151556761_" gradientUnits="userSpaceOnUse" x1="29.5505" y1="14.7432" x2="36.1266" y2="7.5048" gradientTransform="matrix(1 0 0 -1 0 44)">
	<stop  offset="0.2593" style="stop-color:#5AC5F1"/>
	<stop  offset="1" style="stop-color:#5F89C7"/>
</linearGradient>
<linearGradient id="SVGID_00000039132065180502970660000015525452654806644915_" gradientUnits="userSpaceOnUse" x1="29.5505" y1="14.7432" x2="36.1266" y2="7.5048" gradientTransform="matrix(1 0 0 -1 0 44)">
	<stop  offset="0.2593" style="stop-color:#5AC5F1"/>
	<stop  offset="1" style="stop-color:#5F89C7"/>
</linearGradient>
<path style="fill:url(#SVGID_00000114768627175321500320000017921235803151556761_);stroke:url(#SVGID_00000039132065180502970660000015525452654806644915_);stroke-width:0.25;" d="
	M36.4,29.3c-0.2-0.1-0.5,0-0.6,0.1l-6.4,6.4c-0.2,0.2-0.2,0.4-0.1,0.6c0.1,0.2,0.3,0.4,0.5,0.4h6.4c0.3,0,0.6-0.3,0.6-0.6v-6.4
	C36.8,29.6,36.6,29.3,36.4,29.3z M31.2,35.6l4.4-4.4v4.4H31.2z"/>
<linearGradient id="SVGID_00000082349699605129659800000011285772582253969328_" gradientUnits="userSpaceOnUse" x1="2.9725" y1="42.7336" x2="37.5058" y2="4.6002" gradientTransform="matrix(1 0 0 -1 0 44)">
	<stop  offset="0.2593" style="stop-color:#5AC5F1"/>
	<stop  offset="1" style="stop-color:#5F88C6"/>
</linearGradient>
<linearGradient id="SVGID_00000124156522708617091520000006959973935822982570_" gradientUnits="userSpaceOnUse" x1="2.9725" y1="42.7336" x2="37.5058" y2="4.6002" gradientTransform="matrix(1 0 0 -1 0 44)">
	<stop  offset="0.2593" style="stop-color:#5AC5F1"/>
	<stop  offset="1" style="stop-color:#5F89C7"/>
</linearGradient>
<path style="fill:url(#SVGID_00000082349699605129659800000011285772582253969328_);stroke:url(#SVGID_00000124156522708617091520000006959973935822982570_);stroke-width:0.25;" d="
	M40.6,19.8c-0.2-0.1-0.5,0-0.6,0.1l-1.8,1.8v-12c0-0.3-0.3-0.6-0.6-0.6h-4.5l1.6-1.6c0,0,0,0,0,0l1.6-1.6c0.3-0.3,0.5-0.8,0.5-1.3
	c0-0.5-0.2-0.9-0.5-1.3l-1.8-1.8C34.2,1.2,33.7,1,33.3,1c-0.5,0-0.9,0.2-1.3,0.5l-1.6,1.6L28.5,5l-4.1,4.1H6.2V3.3
	c0-0.3-0.3-0.6-0.6-0.6C3.1,2.7,1,4.8,1,7.3v25c0,0,0,0.1,0,0.1c0.1,1.1,0.5,2.1,1.3,2.9c0.8,0.8,1.9,1.3,3.1,1.3h17.9L20,40
	c-0.2,0.2-0.2,0.4-0.1,0.6c0.1,0.2,0.3,0.4,0.5,0.4h20c0.3,0,0.6-0.3,0.6-0.6V20.4C41,20.1,40.9,19.9,40.6,19.8z M32.8,2.4
	c0.2-0.2,0.6-0.2,0.9,0l1.8,1.8c0.2,0.2,0.2,0.6,0,0.9l-1.2,1.2l-2.7-2.7L32.8,2.4z M30.8,4.4l2.7,2.7l-1.1,1.1l-2.7-2.7L30.8,4.4z
	 M39.8,27h-1.1c-0.3,0-0.6,0.3-0.6,0.6c0,0.3,0.3,0.6,0.6,0.6h1.1v1.8h-1.1c-0.3,0-0.6,0.3-0.6,0.6s0.3,0.6,0.6,0.6h1.1v1.8h-1.1
	c-0.3,0-0.6,0.3-0.6,0.6c0,0.3,0.3,0.6,0.6,0.6h1.1v1.8h-1.1c-0.3,0-0.6,0.3-0.6,0.6c0,0.3,0.3,0.6,0.6,0.6h1.1v2.8h-18l5.9-5.9
	c0.2-0.2,0.2-0.6,0-0.8c0,0-0.1,0-0.1-0.1c-0.2-0.2-0.5-0.1-0.7,0.1l-2.4,2.4H5.4c-1.8,0-3.2-1.4-3.3-3.2c0-0.1,0-0.2,0-0.3
	c0,0,0,0,0,0c0-0.1,0-0.1,0-0.2c0,0,0,0,0,0c0,0,0-0.1,0-0.1c0,0,0,0,0,0c0,0,0-0.1,0-0.1c0,0,0,0,0-0.1c0,0,0-0.1,0-0.1
	c0,0,0-0.1,0-0.1c0,0,0,0,0-0.1c0,0,0-0.1,0-0.1c0,0,0,0,0,0c0,0,0-0.1,0.1-0.1c0,0,0,0,0,0c0.5-1,1.3-1.7,2.4-1.9c0,0,0,0,0,0
	c0,0,0.1,0,0.1,0c0,0,0,0,0,0c0,0,0.1,0,0.1,0c0,0,0,0,0,0c0,0,0.1,0,0.1,0c0,0,0,0,0,0c0.1,0,0.1,0,0.2,0c0.3,0,0.6-0.3,0.6-0.6V24
	c0-0.3-0.3-0.6-0.6-0.6S5,23.7,5,24v3.7c-1,0.1-1.9,0.6-2.6,1.3c-0.1,0.1-0.1,0.2-0.2,0.2V7.3c0-1.7,1.2-3.1,2.9-3.4v17.8
	c0,0.3,0.3,0.6,0.6,0.6c0.3,0,0.6-0.3,0.6-0.6V10.3h17.1L20,13.6c-0.2,0.2-0.2,0.6,0,0.8c0.2,0.2,0.6,0.2,0.8,0l4.2-4.3c0,0,0,0,0,0
	l3.8-3.9L31.6,9l-0.3,0.3c0,0,0,0,0,0L19.5,21.2l-2.7-2.7l2.3-2.3c0.2-0.2,0.2-0.6,0-0.8c-0.2-0.2-0.6-0.2-0.8,0l-2.7,2.8
	c0,0,0,0,0,0c0,0,0,0,0,0c0,0,0,0,0,0c0,0,0,0,0,0c0,0,0,0,0,0c0,0,0,0,0,0c0,0,0,0,0,0c0,0,0,0,0,0l-1.1,3.3l-0.8,2.2
	c0,0,0,0.1,0,0.1h-2c-0.3,0-0.6,0.3-0.6,0.6c0,0.3,0.3,0.6,0.6,0.6h16.3c0.3,0,0.6-0.3,0.6-0.6c0-0.3-0.3-0.6-0.6-0.6H16.1l3.6-1.3
	c0,0,0,0,0,0c0,0,0,0,0,0c0,0,0,0,0,0c0,0,0,0,0,0c0,0,0,0,0,0c0,0,0,0,0,0c0,0,0,0,0,0c0,0,0,0,0,0L32,10.3h5.1v12.6l-8.4,8.4
	c-0.2,0.2-0.2,0.6,0,0.8c0,0,0,0,0,0c0.1,0.1,0.2,0.1,0.4,0.1c0.1,0,0.3,0,0.4-0.1c0,0,0,0,0,0l0,0l10.3-10.4V27z M18.4,21.8
	l-1.7,0.6l-1.1-1.1l0.6-1.7L18.4,21.8z"/>
</svg>
